<svg version="1.0" xmlns="http://www.w3.org/2000/svg"
 width="100pt" height="100pt" viewBox="0 0 1082.000000 1082.000000"
 preserveAspectRatio="xMidYMid meet">
<metadata>
Created by potrace 1.14, written by Peter Selinger 2001-2017
</metadata>
<g transform="translate(0.000000,1082.000000) scale(0.100000,-0.100000)"
fill="#FFFFFF" stroke="none">
<path d="M5118 10805 c-2 -1 -48 -6 -103 -9 -55 -4 -116 -9 -135 -11 -19 -3
-57 -7 -85 -10 -85 -9 -118 -13 -185 -24 -36 -6 -83 -13 -105 -17 -22 -3 -71
-12 -110 -20 -38 -8 -86 -17 -105 -20 -19 -3 -38 -8 -41 -10 -3 -2 -21 -6 -40
-9 -144 -26 -517 -139 -751 -229 -194 -74 -470 -204 -657 -308 -58 -32 -108
-58 -113 -58 -4 0 -8 -4 -8 -9 0 -5 -8 -11 -17 -15 -46 -15 -465 -293 -493
-326 -3 -3 -21 -17 -40 -30 -19 -14 -44 -32 -55 -42 -11 -9 -54 -44 -95 -78
-146 -121 -207 -177 -375 -345 -249 -249 -347 -361 -524 -599 -257 -345 -468
-712 -646 -1121 -113 -260 -262 -736 -308 -985 -3 -14 -13 -65 -22 -115 -9
-49 -18 -97 -20 -105 -6 -35 -16 -97 -20 -130 -2 -19 -6 -51 -9 -70 -46 -318
-56 -896 -21 -1215 1 -16 6 -61 10 -100 3 -38 8 -77 10 -85 2 -8 7 -39 10 -69
4 -30 9 -63 11 -75 2 -12 7 -37 10 -56 14 -83 56 -295 68 -345 3 -11 12 -49
21 -85 98 -402 309 -934 507 -1279 26 -46 48 -86 48 -88 0 -18 253 -402 350
-530 73 -96 57 -77 170 -213 136 -165 137 -167 340 -371 183 -183 320 -307
475 -428 44 -34 87 -68 95 -74 43 -34 289 -207 295 -207 2 0 31 -18 64 -40
165 -109 507 -293 706 -379 55 -23 114 -49 130 -56 17 -7 62 -25 100 -39 39
-15 79 -30 90 -35 49 -23 369 -123 500 -156 17 -5 35 -9 40 -11 30 -9 260 -59
310 -68 17 -3 41 -8 55 -11 40 -8 291 -44 350 -51 221 -23 332 -29 610 -29
157 0 332 4 390 9 58 5 116 10 130 11 32 2 160 17 180 20 8 1 40 6 70 10 30 4
62 9 70 10 8 1 35 6 60 10 25 4 54 9 65 11 11 3 35 7 54 10 18 3 41 7 50 9
121 26 172 37 201 45 205 55 279 76 360 101 474 149 978 392 1379 665 51 35
97 64 101 64 5 0 10 4 12 8 2 4 39 35 83 67 405 298 796 683 1101 1086 66 88
304 435 304 444 0 1 17 32 38 66 160 264 351 672 447 954 21 62 95 295 100
315 2 8 20 78 39 155 39 152 70 295 91 425 3 19 7 46 10 60 2 14 7 45 10 70 3
25 8 56 10 70 2 14 7 52 10 85 3 33 8 74 10 90 26 202 26 919 0 1055 -2 12 -7
51 -10 88 -3 37 -8 78 -11 92 -2 14 -7 43 -9 65 -3 22 -14 92 -25 155 -148
845 -493 1638 -1014 2328 -58 75 -119 155 -138 176 -257 303 -552 592 -818
800 -47 37 -92 72 -100 79 -36 30 -224 161 -330 229 -246 159 -533 311 -805
428 -27 11 -59 25 -70 30 -204 90 -607 214 -889 274 -186 40 -293 59 -461 81
-27 4 -60 8 -73 10 -13 2 -67 7 -119 10 -53 4 -106 9 -117 12 -22 5 -672 13
-678 8z m427 -2139 c22 -3 63 -8 90 -11 76 -9 104 -12 175 -24 97 -16 123 -21
142 -27 9 -3 27 -7 40 -9 13 -3 37 -8 53 -12 209 -49 429 -130 652 -239 644
-313 1168 -833 1489 -1476 98 -195 215 -506 240 -635 2 -12 9 -34 14 -48 5
-14 8 -25 5 -25 -2 0 1 -15 6 -32 5 -18 12 -46 14 -63 3 -16 10 -52 15 -80 12
-64 18 -107 25 -170 4 -27 9 -63 12 -80 4 -16 8 -712 10 -1545 4 -1649 6
-1584 -51 -1705 -59 -126 -176 -239 -301 -292 -67 -28 -80 -32 -150 -43 -57
-8 -3007 -6 -3045 3 -14 3 -55 8 -92 12 -37 3 -80 8 -95 11 -15 3 -53 9 -83
14 -30 5 -71 12 -90 15 -60 10 -292 72 -386 104 -199 66 -433 171 -608 273
-106 62 -308 197 -356 238 -9 8 -58 48 -107 89 -125 103 -355 337 -448 455
-377 484 -600 998 -684 1577 -53 363 -45 709 24 1094 26 139 92 369 152 530
163 433 405 806 738 1141 233 234 409 371 708 548 56 34 259 132 357 174 163
69 462 161 605 186 17 3 44 7 60 10 51 10 88 15 145 22 30 3 58 8 61 10 3 1
55 6 115 10 60 3 110 7 112 9 5 5 396 -3 437 -9z"/>
<path d="M5327 6655 c-1 -2 -38 -5 -82 -8 -67 -5 -129 -16 -245 -42 -8 -2 -49
-15 -90 -30 -768 -278 -1075 -1181 -628 -1844 60 -88 66 -96 143 -175 212
-219 491 -353 795 -383 36 -4 369 -7 740 -7 l675 -1 1 680 c2 740 1 756 -55
930 -16 50 -41 117 -56 150 -26 56 -122 213 -148 240 -7 7 -32 36 -56 64 -47
55 -164 156 -244 210 -99 67 -302 156 -399 175 -13 2 -43 9 -68 15 -54 12
-274 32 -283 26z"/>
</g>
</svg>
