<svg height="40" viewBox="0 0 35 40" width="35" xmlns="http://www.w3.org/2000/svg"><path d="M3.75 2.5A3.751 3.751 0 0 0 0 6.25v27.5a3.751 3.751 0 0 0 3.75 3.75h27.5A3.751 3.751 0 0 0 35 33.75V6.25a3.751 3.751 0 0 0-3.75-3.75zm7.725 10.409c1.534 0 2.897.531 3.901 1.326.928.738 1.363 1.477 1.742 2.14l-2.65 1.324c-.189-.435-.418-.889-1.004-1.382-.644-.511-1.287-.663-1.837-.663-2.158 0-3.295 2.007-3.295 4.241 0 2.935 1.497 4.393 3.295 4.393 1.742 0 2.444-1.211 2.897-1.987l2.634 1.344c-.493.776-.966 1.534-2.028 2.271a6.503 6.503 0 0 1-3.729 1.175c-3.541-.001-6.399-2.575-6.399-7.102 0-3.956 2.689-7.081 6.475-7.081zm5.897.416h3.56l2.764 9.506 2.744-9.506H30l-4.639 13.368h-3.407z"/></svg>