<svg height="40" viewBox="0 2.857 40 40" width="40" fill="#FFF" xmlns="http://www.w3.org/2000/svg"><path d="M4.286 2.857A4.287 4.287 0 0 0 0 7.143v31.429a4.287 4.287 0 0 0 4.286 4.286h31.429A4.287 4.287 0 0 0 40 38.571V7.143a4.287 4.287 0 0 0-4.286-4.286zm8.829 11.896c1.753 0 3.311.607 4.458 1.515 1.061.843 1.558 1.688 1.991 2.446l-3.029 1.513c-.216-.497-.478-1.016-1.147-1.579-.736-.584-1.471-.758-2.099-.758-2.466 0-3.766 2.294-3.766 4.847 0 3.354 1.711 5.021 3.766 5.021 1.991 0 2.793-1.384 3.311-2.271l3.01 1.536c-.563.887-1.104 1.753-2.318 2.595a7.432 7.432 0 0 1-4.262 1.343c-4.047-.001-7.313-2.943-7.313-8.117 0-4.521 3.073-8.093 7.4-8.093zm6.739.475h4.069l3.159 10.864 3.136-10.864h4.068l-5.302 15.278H25.09z"/></svg>