<?xml version="1.0" standalone="no"?>
<!DOCTYPE svg PUBLIC "-//W3C//DTD SVG 20010904//EN"
 "http://www.w3.org/TR/2001/REC-SVG-20010904/DTD/svg10.dtd">
<svg version="1.0" xmlns="http://www.w3.org/2000/svg"
 width="934.000000pt" height="934.000000pt" viewBox="0 0 934.000000 934.000000"
 preserveAspectRatio="xMidYMid meet">
<metadata>
Created by potrace 1.14, written by Peter Selinger 2001-2017
</metadata>
<g transform="translate(0.000000,934.000000) scale(0.100000,-0.100000)"
fill="#000000" stroke="none">
<path d="M4418 9335 c-2 -2 -46 -6 -98 -9 -85 -6 -171 -15 -302 -32 -35 -4
-184 -31 -338 -60 -14 -3 -38 -9 -55 -14 -16 -5 -43 -11 -60 -13 -86 -13 -431
-123 -630 -202 -199 -79 -621 -290 -633 -317 -2 -5 -9 -8 -16 -8 -17 0 -299
-188 -423 -282 -101 -76 -124 -94 -167 -133 -13 -11 -47 -40 -76 -65 -76 -63
-212 -193 -289 -274 -36 -38 -84 -88 -106 -111 -22 -23 -58 -64 -80 -90 -22
-26 -49 -58 -60 -71 -11 -12 -31 -37 -45 -54 -14 -17 -32 -40 -40 -50 -8 -10
-22 -28 -30 -40 -8 -12 -20 -28 -25 -34 -6 -6 -26 -33 -45 -61 -19 -27 -42
-59 -52 -69 -10 -11 -18 -25 -18 -32 0 -7 -6 -17 -14 -21 -7 -4 -21 -21 -30
-38 -25 -45 -39 -67 -63 -98 -13 -16 -23 -35 -23 -43 0 -8 -4 -14 -9 -14 -5 0
-13 -10 -17 -22 -4 -13 -10 -25 -14 -28 -3 -3 -20 -30 -36 -60 -16 -30 -31
-57 -35 -60 -3 -3 -43 -81 -88 -175 -46 -93 -87 -178 -92 -187 -28 -54 -166
-419 -184 -488 -2 -8 -11 -40 -20 -70 -18 -59 -54 -194 -61 -222 -2 -10 -6
-28 -9 -40 -10 -43 -26 -113 -30 -133 -5 -29 -14 -76 -19 -101 -9 -43 -32
-201 -41 -269 -3 -27 -7 -66 -10 -85 -26 -210 -26 -774 0 -970 3 -19 9 -66 14
-104 6 -38 9 -72 9 -75 -1 -6 11 -88 19 -126 2 -11 8 -45 14 -75 37 -203 155
-639 188 -695 3 -5 6 -16 7 -24 6 -36 122 -309 201 -471 71 -145 192 -363 205
-368 4 -2 8 -8 8 -13 0 -8 119 -196 141 -223 33 -40 79 -106 79 -115 0 -5 4
-11 8 -13 4 -1 39 -43 77 -93 38 -49 79 -99 90 -110 11 -11 28 -31 37 -44 26
-38 206 -229 292 -311 44 -41 96 -91 116 -110 19 -19 58 -53 84 -75 27 -22 60
-50 72 -63 13 -12 26 -22 29 -22 4 0 12 -6 19 -13 15 -15 61 -51 141 -112 33
-24 65 -49 72 -55 7 -5 17 -10 23 -10 5 0 10 -4 10 -10 0 -5 7 -10 15 -10 8 0
15 -4 15 -8 0 -4 14 -16 32 -26 17 -11 40 -26 50 -35 10 -9 22 -16 26 -16 4 0
30 -16 57 -35 60 -42 70 -48 131 -81 72 -38 98 -53 104 -60 3 -3 41 -23 85
-44 44 -22 92 -47 106 -57 14 -9 29 -15 33 -11 3 3 6 1 6 -5 0 -7 3 -11 8 -10
4 0 25 -7 47 -17 22 -10 43 -18 48 -17 4 1 7 -3 7 -10 0 -6 3 -9 6 -5 3 3 25
-5 47 -18 23 -12 47 -24 52 -25 13 -3 55 -18 80 -29 82 -36 145 -59 145 -54 0
3 7 0 15 -7 8 -7 15 -9 15 -5 0 4 7 2 15 -5 8 -7 15 -9 15 -5 0 4 7 2 15 -5 8
-7 15 -9 15 -5 0 4 7 2 15 -5 8 -7 15 -9 15 -5 0 4 7 2 15 -5 8 -7 15 -9 15
-5 0 4 7 2 15 -5 8 -7 15 -9 15 -5 0 4 7 2 15 -5 8 -7 15 -9 15 -6 0 4 8 2 18
-3 11 -6 32 -13 48 -16 39 -8 59 -13 59 -15 0 -1 7 -3 15 -5 47 -13 138 -36
155 -39 11 -2 43 -10 70 -16 62 -14 74 -17 116 -24 19 -3 44 -8 55 -10 12 -2
37 -7 55 -10 19 -3 43 -7 54 -10 11 -2 47 -7 80 -11 32 -4 66 -8 75 -10 16 -3
86 -10 215 -23 44 -4 1027 -7 2185 -7 l2105 0 85 22 c70 19 242 93 260 113 3
3 21 17 40 31 19 15 61 53 93 85 79 79 87 89 87 101 0 6 7 16 15 23 14 11 88
151 94 175 1 6 8 33 17 60 8 28 18 68 22 90 10 56 9 4197 -1 4320 -5 55 -10
111 -12 125 -2 14 -6 50 -10 80 -4 30 -8 66 -10 80 -2 14 -7 45 -10 70 -29
208 -140 659 -196 795 -7 17 -13 37 -15 46 -3 14 -79 207 -135 339 -23 57
-160 328 -196 390 -11 19 -31 53 -43 75 -72 127 -254 395 -272 403 -5 2 -8 8
-8 14 0 10 -70 101 -82 106 -5 2 -8 8 -8 13 0 5 -8 17 -17 27 -10 11 -34 38
-53 62 -73 92 -233 263 -329 355 -142 134 -159 150 -203 187 -23 20 -54 47
-68 58 -14 12 -40 34 -59 48 -19 15 -39 32 -45 37 -6 6 -29 24 -51 40 -22 17
-42 32 -45 35 -3 3 -25 19 -50 35 -25 17 -54 38 -64 47 -11 10 -28 20 -38 24
-10 3 -18 10 -18 15 0 5 -4 9 -10 9 -5 0 -19 8 -30 18 -11 9 -24 17 -28 18 -4
0 -50 28 -102 62 -52 34 -100 62 -106 62 -7 0 -14 3 -16 8 -4 8 -56 38 -158
89 -41 21 -77 41 -78 46 -2 4 -8 5 -13 1 -5 -3 -9 0 -9 5 0 6 -9 11 -20 11
-11 0 -20 5 -20 10 0 6 -3 9 -7 8 -5 0 -26 7 -48 17 -22 10 -42 19 -45 20 -3
1 -36 16 -74 34 -38 18 -76 34 -85 36 -9 2 -34 11 -56 20 -22 10 -49 21 -60
25 -11 4 -38 15 -60 23 -39 15 -115 41 -125 42 -3 0 -11 4 -17 8 -7 5 -13 6
-13 2 0 -3 -13 1 -30 10 -16 9 -30 13 -30 11 0 -3 -16 2 -35 10 -19 8 -35 12
-35 9 0 -3 -8 -1 -19 4 -10 6 -33 13 -51 16 -18 3 -41 10 -51 16 -11 5 -19 8
-19 5 0 -2 -16 0 -36 6 -48 13 -74 19 -101 23 -11 2 -30 6 -41 9 -22 7 -40 11
-93 20 -19 3 -44 8 -55 10 -12 2 -37 7 -55 10 -19 3 -43 7 -54 10 -11 2 -47 7
-80 11 -33 4 -71 9 -85 11 -27 4 -88 10 -190 20 -63 6 -617 14 -622 9z m592
-2910 c41 -4 77 -9 80 -10 3 -2 24 -6 46 -9 38 -6 78 -14 99 -20 6 -2 24 -6
40 -10 17 -4 47 -14 68 -22 20 -8 37 -11 37 -8 0 3 6 2 13 -3 6 -4 14 -8 17
-9 6 -1 31 -10 95 -36 55 -22 197 -89 205 -98 8 -8 43 -29 65 -39 12 -5 42
-25 68 -45 26 -20 50 -36 53 -36 3 0 11 -6 19 -12 7 -7 28 -24 47 -38 65 -49
237 -226 300 -310 187 -248 302 -527 342 -827 10 -74 14 -328 15 -1041 l2
-943 -1008 4 c-555 2 -1019 6 -1033 9 -14 4 -45 9 -70 12 -42 6 -54 8 -112 21
-13 3 -34 7 -48 10 -14 2 -36 9 -50 14 -14 5 -45 14 -70 22 -25 7 -49 15 -55
18 -5 3 -15 6 -21 7 -6 1 -29 10 -50 20 -22 11 -41 19 -44 19 -12 1 -146 71
-158 82 -7 7 -18 13 -23 13 -9 0 -92 52 -146 92 -17 12 -41 30 -53 38 -80 55
-246 220 -320 318 -30 39 -58 72 -62 72 -5 0 -8 4 -8 9 0 6 -26 52 -57 103
-127 208 -203 435 -238 708 -6 48 -7 276 -1 325 2 17 7 56 11 88 7 65 7 66 29
157 19 80 52 184 73 230 9 19 16 41 16 48 0 6 5 12 10 12 6 0 8 3 5 6 -7 6 61
140 93 186 11 14 19 31 19 37 0 6 5 11 10 11 6 0 10 7 10 15 0 8 5 15 10 15 6
0 10 5 10 11 0 6 19 34 43 64 23 29 52 66 64 82 97 125 306 301 478 401 50 28
222 113 238 116 7 2 26 9 42 15 33 14 178 60 210 67 143 30 168 33 265 41 41
3 76 6 78 7 5 5 230 -2 302 -9z"/>
</g>
</svg>
