<?xml version="1.0" standalone="no"?>
<!DOCTYPE svg PUBLIC "-//W3C//DTD SVG 20010904//EN"
 "http://www.w3.org/TR/2001/REC-SVG-20010904/DTD/svg10.dtd">
<svg version="1.0" xmlns="http://www.w3.org/2000/svg"
 width="512.000000pt" height="512.000000pt" viewBox="0 0 512.000000 512.000000"
 preserveAspectRatio="xMidYMid meet">
<metadata>
Created by potrace 1.14, written by Peter Selinger 2001-2017
</metadata>
<g transform="translate(0.000000,512.000000) scale(0.100000,-0.100000)"
fill="#000000" stroke="none">
<path d="M1330 5110 c-113 -15 -155 -21 -170 -25 -8 -2 -28 -7 -45 -9 -111
-20 -293 -90 -404 -156 -270 -161 -473 -406 -588 -709 -29 -78 -70 -243 -80
-326 -10 -79 -10 -2395 0 -2505 42 -465 157 -743 407 -988 163 -159 447 -301
690 -346 14 -2 36 -7 50 -10 124 -28 254 -31 1350 -31 994 0 1174 3 1260 20
44 9 74 15 105 20 79 14 272 84 375 137 417 214 671 574 777 1098 3 18 10 70
22 165 5 39 8 243 5 455 -3 373 -6 436 -20 510 -3 19 -8 46 -10 60 -9 54 -47
167 -74 220 -111 218 -294 358 -549 420 -87 21 -125 27 -248 36 -48 3 -89 7
-90 8 -1 1 2 18 7 37 26 95 38 260 34 459 -2 113 -6 221 -8 240 -3 19 -8 58
-11 85 -57 492 -412 912 -900 1068 -85 27 -134 39 -230 59 -67 14 -1554 21
-1655 8z m1428 -1038 c209 -46 366 -257 349 -471 -7 -91 -19 -129 -63 -198
-61 -96 -155 -162 -268 -188 -84 -20 -1183 -17 -1251 2 -125 37 -222 119 -281
238 -32 66 -37 85 -40 163 -9 251 155 437 406 460 128 12 1089 6 1148 -6z
m953 -2025 c137 -42 248 -151 290 -286 80 -260 -81 -524 -346 -568 -27 -5
-534 -8 -1125 -8 -1202 1 -1128 -3 -1246 73 -151 98 -225 272 -192 453 30 163
168 304 333 342 42 10 309 12 1142 11 995 0 1093 -2 1144 -17z"/>
</g>
</svg>
